HIERARCHY
ROOT Hip
{
   OFFSET 0.00000 0.00000 0.00000
   CHANNELS 6 Xposition Yposition Zposition Zrotation Yrotation Xrotation
   JOINT Head
   {
      OFFSET 0.000000 29.695000 0.000000
      CHANNELS 3 Zrotation Yrotation Xrotation
      End Site
      {
         OFFSET 0.000000 17.692500 0.000000
      }
      JOINT LeftShoulder
      {
         OFFSET 9.818250 0.000000 0.000000
         CHANNELS 3 Zrotation Yrotation Xrotation
         JOINT LeftHand
         {
            OFFSET 0.000000 -14.347499 0.000000
            CHANNELS 3 Zrotation Yrotation Xrotation
            End Site
            {
               OFFSET 0.000000 -15.713750 0.000000
            }
         }
      }
      JOINT RightShoulder
      {
         OFFSET -10.463999 0.000000 0.000000
         CHANNELS 3 Zrotation Yrotation Xrotation
         JOINT RghtHand
         {
            OFFSET 0.000000 -17.191250 0.000000
            CHANNELS 3 Zrotation Yrotation Xrotation
            End Site
            {
               OFFSET 0.000000 -11.776000 0.000000
            }
         }
      }
   }
   JOINT LeftHip
   {
      OFFSET 10.389125 0.000000 0.000000
      CHANNELS 3 Zrotation Yrotation Xrotation
      JOINT LeftKnee
      {
         OFFSET 0.000000 -29.284999 0.000000
         CHANNELS 3 Zrotation Yrotation Xrotation
         JOINT LeftFoot
         {
            OFFSET 0.000000 -22.328751 0.000000
            CHANNELS 3 Zrotation Yrotation Xrotation
            End Site
            {
               OFFSET 0.000000 0.000000 14.551251
            }
         }
      }
   }
   JOINT RightHip
   {
      OFFSET -10.389125 0.000000 0.000000
      CHANNELS 3 Zrotation Yrotation Xrotation
      JOINT RightKnee
      {
         OFFSET 0.000000 -26.503751 0.000000
         CHANNELS 3 Zrotation Yrotation Xrotation
         JOINT RightFoot
         {
            OFFSET 0.000000 -22.730000 0.000000
            CHANNELS 3 Zrotation Yrotation Xrotation
            End Site
            {
               OFFSET 0.000000 0.000000 14.616250
            }
         }
      }
   }
}
MOTION
Frames: 12
Frame Time: 0.016670
6.971869 80.127352 2.387305 35.463882 26.276282 258.174758 -4.231904 13.265555 12.041222 -11.884527 -73.461574 76.204113 60.485498 182.694747 136.250021 -33.574365 -11.365713 29.369861 -94.276261 20.563186 54.803577 -87.211947 -3.255839 71.961924 87.450675 -53.393245 4.018414 -10.316236 -49.061187 -41.475852 -110.800770 -21.877642 84.627594 42.139409 -46.883805 67.329034 -57.904131 -50.747530 -0.982503
8.898088 80.272483 1.557921 33.485521 30.065475 259.366899 -5.032066 13.045491 12.025080 -10.636133 -67.462277 75.956983 61.806819 184.325086 137.520887 -31.883630 -11.388154 28.601011 -92.998483 19.427102 54.993634 -86.036130 -0.709854 72.597562 82.822218 -54.119854 3.226409 -10.368224 -49.267104 -41.783143 -112.259732 -18.085639 83.626801 40.947466 -45.885993 65.637537 -58.575600 -51.053830 -1.551163
10.849017 80.228795 0.710123 31.522358 34.068266 260.371374 -5.964068 12.724866 12.087726 -9.062900 -62.417943 76.266063 62.190921 186.928139 140.531361 -30.083199 -11.581068 26.693882 -92.357435 19.087201 55.455645 -83.932698 2.206231 73.328795 78.384514 -54.336334 2.693558 -10.259631 -48.847898 -41.556619 -113.388626 -14.099562 82.439960 40.256800 -44.278829 63.837263 -59.573661 -50.880815 -2.859221
12.899320 79.959706 -0.192725 29.711845 37.697668 261.781808 -6.037820 10.937728 10.628362 -8.443481 -56.037392 75.491690 64.930954 187.692424 143.755743 -31.107318 -10.557270 24.523989 -91.114628 17.967431 55.652614 -80.519140 4.938610 73.921122 74.030221 -54.807043 2.724314 -10.118730 -48.579744 -41.306590 -113.436513 -11.160387 80.779083 39.001056 -42.420328 62.636311 -60.118779 -51.194115 -3.290125
14.999963 79.459251 -1.142078 27.902247 41.524835 263.055037 -6.997247 10.443178 9.368977 -7.358251 -53.414494 74.746011 68.001623 188.066417 146.260592 -30.993302 -10.694961 23.401831 -89.064984 15.889375 56.176684 -77.920451 7.515437 75.080083 70.702471 -55.158849 2.633304 -10.153804 -48.381368 -41.331582 -113.484904 -8.155405 78.890372 38.090104 -41.303561 61.869220 -59.837013 -51.383107 -2.416802
17.155952 78.698176 -2.132426 26.503779 45.772199 264.387662 -8.938449 13.713244 9.466321 -6.681852 -58.199099 74.457463 67.182970 190.892354 150.442935 -30.084016 -12.377175 25.062590 -86.550183 12.993999 57.975028 -76.089031 10.018813 76.308410 68.275746 -55.649656 2.454431 -10.000947 -48.473245 -41.208109 -113.078003 -5.240583 76.053603 37.650656 -40.967956 61.643905 -58.591685 -51.599494 0.067235
19.325399 77.679342 -3.160734 25.310801 49.063206 266.890297 -10.129049 12.668434 6.537822 -7.667391 -54.558229 73.659711 72.380273 189.891048 155.365439 -32.386541 -10.662304 25.271512 -84.076063 10.302194 58.477102 -74.339021 11.616493 77.869928 67.135603 -55.115303 2.440330 -9.570428 -47.735031 -40.344934 -111.178404 -3.757516 73.736987 37.548419 -40.653894 60.897161 -56.978268 -51.907795 3.195451
21.492257 76.404427 -4.234155 24.697368 52.162343 269.749824 -11.606440 13.140005 4.238345 -8.059760 -53.196700 72.842233 76.160933 189.434231 158.821378 -33.399724 -9.786838 27.168838 -81.640636 7.709029 59.938448 -71.671477 13.435544 79.056339 66.404670 -54.087199 2.752034 -8.154022 -46.583379 -37.950034 -107.574913 -2.289256 70.985084 38.345488 -40.079799 59.730961 -55.676161 -52.431978 6.013548
23.651189 74.818338 -5.345277 25.606960 55.652887 273.860970 -13.359778 14.797436 2.537384 -8.198276 -53.248479 72.109811 78.787257 189.288898 161.408408 -32.603263 -10.248470 29.136815 -80.101364 6.246315 61.937303 -71.197188 15.212773 80.397795 67.678876 -51.565206 1.920615 -6.651090 -44.529456 -35.130716 -101.455548 -0.593646 67.103439 39.389725 -39.993476 58.638554 -55.193717 -54.285251 8.223799
25.805261 72.921809 -6.558119 25.928959 59.244624 277.724972 -15.113687 16.367105 1.893048 -9.637008 -54.956146 70.629593 79.930883 189.346012 163.824191 -31.359277 -11.910136 30.328195 -78.805097 4.932327 64.228476 -68.761796 16.507242 81.441721 67.559279 -51.366752 2.537914 -6.027119 -44.256231 -34.103602 -91.265035 1.830918 62.696895 39.345288 -41.144578 58.051567 -54.656232 -57.536387 11.246131
27.882247 70.758118 -7.829965 28.431682 63.028453 284.286407 -17.080925 16.786247 -0.333932 -7.801000 -51.935601 72.025868 82.688381 188.970789 164.909412 -29.394675 -12.599878 30.313291 -78.724371 5.242947 64.921597 -64.109713 17.153206 80.220784 65.514587 -54.177125 4.746335 -4.623786 -46.551465 -32.743117 -82.228552 5.201456 60.205734 42.278051 -44.107132 53.841043 -55.078406 -59.647386 12.030626
29.896042 68.332924 -9.162007 33.286193 66.450460 293.159861 -19.007797 17.579551 -2.922052 -7.319806 -51.981527 71.881724 84.379372 189.047041 166.901082 -28.791901 -13.212291 30.503317 -78.587057 5.461567 66.159056 -62.819032 17.593213 79.170232 65.150197 -55.418755 4.991196 -2.741888 -47.871403 -30.477185 -71.708811 10.408216 57.542110 47.078404 -49.527645 47.536269 -54.503837 -60.820642 13.653567
